Coordinates
version=1
nRows=8
nColumns=40
inDegrees=yes

Units are S.I. units (second, meters, Newtons, ...)
Angles are in degrees.

endheader
time	pelvis_tilt	pelvis_list	pelvis_rotation	pelvis_tx	pelvis_ty	pelvis_tz	hip_flexion_r	hip_adduction_r	hip_rotation_r	knee_angle_r	knee_angle_r_beta	ankle_angle_r	subtalar_angle_r	mtp_angle_r	hip_flexion_l	hip_adduction_l	hip_rotation_l	knee_angle_l	knee_angle_l_beta	ankle_angle_l	subtalar_angle_l	mtp_angle_l	lumbar_extension	lumbar_bending	lumbar_rotation	arm_flex_r	arm_add_r	arm_rot_r	elbow_flex_r	pro_sup_r	wrist_flex_r	wrist_dev_r	arm_flex_l	arm_add_l	arm_rot_l	elbow_flex_l	pro_sup_l	wrist_flex_l	wrist_dev_l
     55.59500000	     -6.68746121	     -6.20663709	     -1.47181656	      1.07043645	      0.91372657	      0.51342087	     26.22009678	      3.05002591	    -12.14981111	     21.93154532	     21.93154532	      4.41148403	     -1.02935352	     -3.61805324	     13.41846312	    -14.07611747	     -2.10683244	     53.15158716	     53.15158716	      8.70958011	    -17.94628955	      0.71842626	    -12.00725343	      7.23632999	      2.72956930	      1.73942240	    -14.07389106	     -8.88185360	     30.92462398	     45.85898762	      0.00000000	      0.00000000	     12.66848126	    -15.13514701	     -4.12922555	     97.01423870	     48.28020386	      0.00000000	      0.00000000
     55.60685714	     -6.56098640	     -6.20658279	     -1.29487130	      1.07004735	      0.91498876	      0.51580828	     25.44892219	      3.16843505	    -12.29936955	     21.80758073	     21.80758073	      4.91202701	     -0.85512270	     -3.77792049	     15.58544688	    -14.17306538	     -0.85766845	     56.76762884	     56.76762884	      7.11895058	    -18.04234383	      2.11868091	    -12.16440673	      7.12390511	      2.42639315	      3.60990061	    -14.33762524	     -8.53134788	     32.16658838	     45.80544597	      0.00000000	      0.00000000	     11.48143228	    -14.92055854	     -3.69148989	     94.48515509	     48.20217522	      0.00000000	      0.00000000
     55.61871429	     -6.42719709	     -6.28952766	     -1.12549893	      1.06944441	      0.91612738	      0.51807631	     24.66222663	      3.37276938	    -12.49078264	     21.65225900	     21.65225900	      5.36762098	     -0.69536800	     -3.90824851	     17.72560376	    -14.30562853	      0.35193221	     59.98787254	     59.98787254	      5.55671418	    -18.08657958	      2.66690182	    -12.40008490	      7.06672923	      2.50883233	      5.49027858	    -14.71358697	     -8.43295548	     33.10038766	     45.77768357	      0.00000000	      0.00000000	     10.36003502	    -14.28749627	     -3.21876897	     92.73271117	     48.13330868	      0.00000000	      0.00000000
     55.63057143	     -6.40496529	     -6.18875886	     -0.93904966	      1.06867820	      0.91710678	      0.52004669	     24.00608845	      3.32644703	    -12.76583667	     21.51883284	     21.51883284	      5.88084688	     -0.17682376	     -3.93416946	     20.10714964	    -14.02723579	      1.66660470	     63.12038089	     63.12038089	      5.99018489	    -17.54706380	      7.24099677	    -12.33849313	      6.88159581	      2.97573391	      6.23537077	    -15.56279415	     -6.33442861	     35.80487870	     45.57332843	      0.00000000	      0.00000000	     10.48623327	    -13.58790113	     -2.39595467	     87.41068767	     47.99682548	      0.00000000	      0.00000000
     55.64242857	     -6.37066760	     -6.25183461	     -0.73044882	      1.06778181	      0.91792366	      0.52202406	     23.32854921	      3.47760054	    -13.02217015	     21.33834635	     21.33834635	      6.30966454	      0.08330544	     -4.03730643	     22.30031450	    -14.03707876	      2.73969956	     65.50034455	     65.50034455	      5.15409085	    -17.37849968	      7.19126535	    -12.39177707	      6.81891652	      2.71295423	      8.24111719	    -15.75481999	     -6.24554823	     36.93097818	     45.54178793	      0.00000000	      0.00000000	      9.30289922	    -13.32862391	     -2.15635676	     84.89201449	     47.92569317	      0.00000000	      0.00000000
     55.65428571	     -6.28732035	     -6.17362409	     -0.56850761	      1.06674337	      0.91886557	      0.52388989	     22.61574530	      3.47432531	    -13.24765425	     21.17945241	     21.17945241	      6.74715993	      0.52900725	     -4.08931849	     24.32421629	    -13.92596551	      3.52179460	     67.34574136	     67.34574136	      4.76807164	    -17.17938978	      7.29025003	    -12.47078934	      6.60244846	      2.55447035	     10.24171399	    -16.02076648	     -5.78723904	     38.30023902	     45.48286144	      0.00000000	      0.00000000	      8.71273500	    -12.80866451	     -2.17323881	     80.66472907	     47.84460981	      0.00000000	      0.00000000
     55.66614286	     -6.22606192	     -6.23252092	     -0.38364292	      1.06560187	      0.91968009	      0.52561562	     21.94581127	      3.60171387	    -13.51773706	     21.04472660	     21.04472660	      7.24260124	      0.91625661	     -3.94912527	     26.37418946	    -13.94575303	      4.25871777	     68.77199173	     68.77199173	      4.75337855	    -17.04406029	      7.56476299	    -12.49884145	      6.55676103	      3.13934105	     11.56977047	    -16.81545280	     -4.72069107	     40.04359093	     45.38112402	      0.00000000	      0.00000000	      8.85370298	    -11.74780620	     -2.01488131	     75.63607365	     47.74597993	      0.00000000	      0.00000000
     55.67800000	     -6.24315911	     -6.36572971	     -0.16472934	      1.06427732	      0.92030354	      0.52732149	     21.32434594	      3.83916644	    -13.73938131	     20.79316831	     20.79316831	      7.60240501	      1.08144143	     -3.93279181	     28.48508424	    -14.08595633	      4.88448142	     69.70701403	     69.70701403	      4.79395213	    -17.06151809	      7.41403381	    -12.53164950	      6.55255934	      2.86126595	     13.63644847	    -16.91818202	     -4.60473971	     41.50031935	     45.33629885	      0.00000000	      0.00000000	      7.60353632	    -11.69250502	     -1.63899311	     73.16337522	     47.66757987	      0.00000000	      0.00000000
